# xmcd
#
# Track frame offsets:
#	150
#	13985
#	28192
#	41940
#	54115
#	69687
#	82195
#	97165
#	125257
#	136352
#	158217
#	170520
#
# Disc length: 2429
#
# Revision: 3
# Processed by: cddbd v1.5.1PL0 Copyright (c) Steve Scherf et al.
# Submitted via: CDex 1.51
# Normalized: r2:TSWAP
#
DISCID=ab097b0c
DTITLE=Various Artist - B.B. King And The Best Of The Blues, Volume 2
DYEAR=1995
DGENRE=Blues
TTITLE0=B.B. King - You Upset Me Baby
TTITLE1=Jimmy Rogers - That's All Right
TTITLE2=Memphis Slim - Someday Baby
TTITLE3=Lightin' Hopkins - Shotgun Blues
TTITLE4=Sonny Terry - Telephone Blues
TTITLE5=Mercy Dee Walton - Danger Zone
TTITLE6=Guitar Junior - The Things I Use To Do
TTITLE7=B.B. King - Sweet Sixteen
TTITLE8=Smokey Hogg - When I've Been Drinkin'
TTITLE9=Fred McDowell - Baby, Please Dont' Go
TTITLE10=Bumble Bee Slim - New B&O Blues
TTITLE11=Jimmy McCracklin - Bad Luck And Trouble
EXTD=YEAR: 1995
EXTT0=
EXTT1=
EXTT2=
EXTT3=
EXTT4=
EXTT5=
EXTT6=
EXTT7=
EXTT8=
EXTT9=
EXTT10=
EXTT11=
PLAYORDER=
